<svg xmlns="http://www.w3.org/2000/svg" width="750" height="468" viewBox="0 0 750 468" version="1.1"><path d="M 718.250 31.706 C 717.013 31.944, 716 32.783, 716 33.570 C 716 34.356, 715.523 35, 714.941 35 C 714.359 35, 714.160 34.550, 714.500 34 C 715.205 32.859, 714.451 32.772, 711.261 33.627 C 710.030 33.957, 709.214 34.538, 709.449 34.917 C 709.683 35.297, 708.269 35.653, 706.305 35.708 C 704.342 35.764, 702.458 36.211, 702.118 36.703 C 701.778 37.194, 700.389 37.666, 699.031 37.752 C 695.742 37.961, 688 40.276, 688 41.052 C 688 41.390, 686.635 41.667, 684.967 41.667 C 683.298 41.667, 681.386 42.258, 680.717 42.980 C 679.747 44.027, 679.785 44.131, 680.905 43.492 C 681.868 42.943, 682.075 43.069, 681.565 43.894 C 681.095 44.655, 680.395 44.759, 679.661 44.177 C 678.153 42.983, 660.982 47.814, 659.176 49.941 C 658.448 50.798, 658.137 50.938, 658.485 50.250 C 659.188 48.862, 658.566 48.742, 655.261 49.627 C 654.030 49.957, 653.214 50.538, 653.449 50.917 C 653.683 51.297, 652.269 51.653, 650.305 51.708 C 648.342 51.764, 646.458 52.190, 646.118 52.655 C 645.778 53.120, 644.938 53.545, 644.250 53.600 C 643.563 53.655, 642.073 53.767, 640.941 53.850 C 639.809 53.932, 639.104 54.360, 639.376 54.800 C 639.648 55.240, 638.295 55.600, 636.368 55.600 C 634.442 55.600, 632.496 56.198, 632.044 56.928 C 631.593 57.659, 630.761 57.970, 630.196 57.621 C 629.630 57.272, 627.893 57.508, 626.334 58.147 C 624.775 58.785, 622.825 59.431, 622 59.582 C 616.787 60.536, 604 64.584, 604 65.280 C 604 65.741, 603.571 65.853, 603.046 65.528 C 601.819 64.770, 596.876 65.990, 597.445 66.910 C 597.681 67.294, 596.269 67.653, 594.305 67.708 C 592.342 67.764, 590.458 68.211, 590.118 68.703 C 589.778 69.194, 588.389 69.666, 587.031 69.752 C 583.219 69.994, 576 72.332, 576 73.325 C 576 73.814, 575.321 73.953, 574.491 73.635 C 573.662 73.317, 571.749 73.563, 570.241 74.182 C 568.734 74.801, 566.846 75.437, 566.047 75.595 C 558.762 77.037, 548 80.696, 548 81.731 C 548 82.429, 547.523 83, 546.941 83 C 546.359 83, 546.204 82.479, 546.597 81.842 C 547.099 81.031, 546.594 80.877, 544.906 81.329 C 543.583 81.683, 542.136 81.979, 541.691 81.986 C 541.246 81.994, 541.105 82.362, 541.379 82.804 C 541.652 83.246, 540.269 83.653, 538.305 83.708 C 536.342 83.764, 534.458 84.190, 534.118 84.655 C 533.778 85.120, 532.938 85.545, 532.250 85.600 C 531.563 85.655, 530.073 85.768, 528.941 85.850 C 527.809 85.933, 527.104 86.360, 527.376 86.800 C 527.648 87.240, 526.295 87.600, 524.368 87.600 C 522.442 87.600, 520.496 88.198, 520.044 88.928 C 519.593 89.659, 518.761 89.970, 518.196 89.621 C 517.630 89.272, 516.118 89.385, 514.834 89.873 C 513.550 90.361, 512.173 90.856, 511.774 90.974 C 509.486 91.646, 496.147 95.239, 494.250 95.694 C 493.012 95.990, 492 96.589, 492 97.023 C 492 97.457, 491.024 97.558, 489.831 97.246 C 488.019 96.772, 487.782 96.992, 488.391 98.589 C 488.974 100.122, 488.869 100.253, 487.859 99.250 C 486.414 97.815, 484.606 97.554, 485.438 98.900 C 485.744 99.395, 484.363 99.800, 482.368 99.800 C 480.374 99.800, 478.462 100.183, 478.121 100.650 C 477.779 101.118, 476.156 101.646, 474.513 101.825 C 472.870 102.004, 471.295 102.473, 471.013 102.867 C 470.731 103.262, 469.175 103.680, 467.556 103.797 C 465.937 103.914, 464.300 104.515, 463.918 105.133 C 463.536 105.751, 462.761 105.970, 462.196 105.621 C 461.630 105.272, 460.118 105.385, 458.834 105.873 C 457.550 106.361, 456.169 106.837, 455.765 106.930 C 453.611 107.426, 444.290 110.191, 443 110.716 C 440.844 111.594, 440.237 111.735, 438 111.875 C 436.900 111.944, 436 112.675, 436 113.500 C 436 114.325, 435.523 115, 434.941 115 C 434.359 115, 434.204 114.479, 434.597 113.842 C 435.099 113.031, 434.594 112.877, 432.906 113.329 C 431.583 113.683, 430.136 113.979, 429.691 113.986 C 429.246 113.994, 429.132 114.405, 429.438 114.900 C 429.744 115.395, 428.363 115.800, 426.368 115.800 C 424.374 115.800, 422.462 116.183, 422.121 116.650 C 421.779 117.118, 420.938 117.545, 420.250 117.600 C 419.563 117.655, 418.073 117.767, 416.941 117.850 C 415.809 117.933, 415.132 118.405, 415.438 118.900 C 415.744 119.395, 414.363 119.800, 412.368 119.800 C 410.374 119.800, 408.400 120.353, 407.983 121.028 C 407.565 121.704, 406.761 121.970, 406.196 121.621 C 405.630 121.272, 403.893 121.471, 402.334 122.063 C 400.775 122.656, 399.398 123.151, 399.274 123.164 C 399.150 123.177, 395.775 124.080, 391.774 125.171 C 387.773 126.262, 383.488 127.397, 382.250 127.694 C 381.012 127.990, 380 128.617, 380 129.085 C 380 129.554, 379.347 129.686, 378.548 129.380 C 376.421 128.564, 374.409 130.011, 376.143 131.110 C 377.200 131.779, 377.113 131.973, 375.750 131.985 C 373.735 132.002, 373.398 133.590, 375.250 134.338 C 376.250 134.741, 376.250 134.858, 375.250 134.921 C 374.260 134.984, 374 154.209, 374 227.500 L 374 320 371.460 320 C 370.063 320, 367.159 319.101, 365.006 318.003 C 362.854 316.905, 358.484 315.065, 355.296 313.914 C 352.108 312.763, 347.592 310.962, 345.261 309.911 C 342.929 308.860, 340.442 308, 339.733 308 C 339.025 308, 337.557 307.386, 336.473 306.635 C 335.388 305.884, 333.375 304.942, 332 304.543 C 328.627 303.563, 314.124 298.113, 306.250 294.866 C 299.110 291.923, 293.046 289.545, 281.500 285.164 C 277.100 283.494, 267.627 279.850, 260.450 277.064 C 253.272 274.279, 247.080 272, 246.689 272 C 246.298 272, 243.846 271.055, 241.239 269.900 C 238.633 268.746, 235.488 267.396, 234.250 266.900 C 233.012 266.405, 230.875 265.550, 229.500 265 C 228.125 264.450, 225.988 263.582, 224.750 263.070 C 223.512 262.559, 218.675 260.719, 214 258.981 C 209.325 257.242, 203.475 254.970, 201 253.931 C 198.525 252.892, 191.550 250.218, 185.500 247.989 C 174.514 243.941, 171.036 242.548, 167.764 240.883 C 166.809 240.397, 165.452 240, 164.749 240 C 164.046 240, 161.870 239.142, 159.913 238.093 C 157.957 237.045, 154.363 235.616, 151.928 234.918 C 149.493 234.221, 147.045 233.312, 146.488 232.900 C 145.931 232.487, 142.781 231.176, 139.488 229.986 C 136.195 228.796, 131.592 226.962, 129.261 225.911 C 126.929 224.860, 124.562 224, 124 224 C 123.438 224, 121.071 223.151, 118.739 222.113 C 116.408 221.075, 110.675 218.792, 106 217.040 C 101.325 215.288, 94.350 212.536, 90.500 210.925 C 86.650 209.313, 82.650 207.996, 81.610 207.998 C 80.571 207.999, 79.145 207.213, 78.442 206.252 C 77.739 205.290, 76.912 204.755, 76.604 205.062 C 75.693 205.974, 75.679 321.671, 76.590 323.146 C 77.050 323.889, 77.478 325.173, 77.542 325.999 C 77.606 326.824, 77.735 328.539, 77.829 329.809 C 77.923 331.079, 78.375 331.886, 78.833 331.603 C 79.292 331.320, 79.667 332.506, 79.667 334.238 C 79.667 335.971, 80.194 337.565, 80.840 337.780 C 81.485 337.995, 81.758 338.582, 81.447 339.085 C 81.136 339.588, 81.344 340, 81.910 340 C 82.475 340, 82.710 340.592, 82.432 341.316 C 81.773 343.033, 84.453 348.191, 85.508 347.235 C 85.954 346.831, 86.041 347.274, 85.702 348.221 C 85.363 349.168, 85.741 350.598, 86.542 351.400 C 87.344 352.201, 88 353.366, 88 353.988 C 88 354.609, 88.520 354.797, 89.155 354.405 C 89.855 353.972, 90.038 354.129, 89.621 354.805 C 88.749 356.215, 91.054 360, 92.784 360 C 93.501 360, 93.955 360.788, 93.794 361.750 C 93.630 362.728, 94.052 363.390, 94.750 363.250 C 95.438 363.113, 96 363.830, 96 364.845 C 96 366.852, 98.949 370, 100.829 370 C 101.473 370, 102 370.450, 102 371 C 102 373.165, 102.192 373.575, 104.206 375.719 C 105.353 376.940, 106.675 377.701, 107.145 377.410 C 107.615 377.120, 108 377.584, 108 378.441 C 108 379.915, 109.257 380.488, 111.500 380.035 C 112.050 379.924, 112.166 380.167, 111.759 380.575 C 110.650 381.683, 112.966 384, 115.181 384 C 116.247 384, 116.840 384.450, 116.500 385 C 115.944 385.899, 117.257 386.433, 119.250 386.118 C 119.663 386.053, 119.888 386.562, 119.750 387.250 C 119.613 387.937, 120.183 388.508, 121.018 388.518 C 121.854 388.529, 123.531 389.531, 124.746 390.746 C 126.132 392.132, 127.583 392.714, 128.641 392.307 C 129.704 391.900, 130.084 392.054, 129.670 392.725 C 129.308 393.311, 129.707 394.057, 130.558 394.384 C 131.433 394.720, 131.842 394.553, 131.500 394 C 131.158 393.447, 131.567 393.280, 132.442 393.616 C 133.293 393.943, 133.740 394.612, 133.435 395.105 C 132.912 395.952, 134.422 396.440, 136.408 396.066 C 136.908 395.971, 137.603 396.357, 137.952 396.922 C 138.302 397.488, 139.693 398.074, 141.044 398.225 C 142.395 398.376, 143.739 398.818, 144.032 399.206 C 144.947 400.420, 155.993 402.940, 157.637 402.309 C 158.498 401.979, 159.514 402.213, 159.895 402.830 C 160.692 404.119, 275.001 405.033, 275 403.750 C 275 403.337, 275.788 402.964, 276.750 402.921 C 277.929 402.868, 278.064 402.668, 277.165 402.309 C 276.294 401.962, 277.033 401.034, 279.292 399.638 C 281.196 398.462, 284.912 395.700, 287.550 393.500 C 306.506 377.689, 311.862 373.169, 314.500 370.755 C 316.150 369.245, 318.063 368.007, 318.750 368.005 C 319.438 368.002, 320 367.649, 320 367.220 C 320 366.593, 330.817 357.115, 336.798 352.501 C 337.512 351.951, 338.862 350.809, 339.798 349.964 C 340.734 349.118, 345.550 345.069, 350.500 340.966 C 355.450 336.862, 359.725 333.257, 360 332.954 C 360.275 332.651, 362.075 331.336, 364 330.032 C 365.925 328.728, 368.791 326.387, 370.369 324.830 C 371.946 323.274, 373.849 322, 374.597 322 C 375.717 322, 385.165 329.473, 394.500 337.742 C 395.600 338.717, 398.975 341.536, 402 344.007 C 405.025 346.478, 407.725 348.725, 408 349 C 408.275 349.275, 410.626 351.208, 413.225 353.297 C 415.824 355.385, 418.525 357.635, 419.227 358.297 C 419.928 358.958, 422.527 361.137, 425.001 363.138 C 427.476 365.139, 430.625 367.778, 432 369.002 C 433.375 370.225, 436.075 372.411, 438 373.858 C 439.925 375.305, 441.725 376.728, 442 377.020 C 442.275 377.313, 445.425 380.016, 449 383.026 C 452.575 386.037, 455.725 388.725, 456 389 C 456.275 389.275, 458.525 391.134, 461 393.131 C 463.475 395.127, 467.075 398.158, 469 399.865 C 470.925 401.571, 472.864 402.975, 473.309 402.984 C 473.754 402.993, 473.909 403.338, 473.654 403.750 C 473.399 404.163, 498.010 404.399, 528.345 404.276 C 581.614 404.060, 598 403.242, 598 400.800 C 598 400.295, 598.460 400.166, 599.022 400.514 C 600.359 401.340, 610 398.132, 610 396.861 C 610 396.322, 610.450 396.160, 611 396.500 C 611.550 396.840, 612 396.656, 612 396.090 C 612 395.525, 612.749 395.350, 613.664 395.701 C 614.691 396.096, 615.081 395.940, 614.682 395.295 C 614.307 394.688, 614.972 394.248, 616.268 394.245 C 618.844 394.240, 626 390.267, 626 388.842 C 626 388.314, 626.422 388.143, 626.939 388.462 C 627.455 388.781, 628.341 388.245, 628.908 387.271 C 629.475 386.297, 629.953 385.868, 629.970 386.318 C 629.986 386.768, 631.342 386.181, 632.982 385.013 C 634.622 383.845, 635.859 382.577, 635.732 382.195 C 635.604 381.813, 635.950 381.343, 636.500 381.151 C 639.302 380.175, 640.992 378.796, 640.454 377.925 C 640.122 377.389, 640.447 377.074, 641.176 377.225 C 641.904 377.376, 642.388 376.938, 642.250 376.250 C 642.113 375.563, 642.563 375.113, 643.250 375.250 C 643.938 375.388, 644.376 374.904, 644.225 374.176 C 644.074 373.447, 644.361 373.105, 644.862 373.415 C 646.042 374.144, 648.216 371.549, 647.241 370.575 C 646.834 370.167, 646.990 369.983, 647.589 370.167 C 648.698 370.506, 651.720 367.241, 656.009 361.069 C 657.320 359.183, 657.742 358.019, 656.947 358.483 C 656.151 358.947, 656.737 358.150, 658.250 356.711 C 660.910 354.181, 661.972 352.281, 660.069 353.457 C 659.557 353.774, 658.813 353.506, 658.415 352.862 C 658.017 352.218, 658.119 351.956, 658.643 352.280 C 659.895 353.053, 661.755 351.858, 662.170 350.014 C 662.351 349.208, 663.067 347.938, 663.759 347.193 C 664.452 346.448, 664.763 345.425, 664.450 344.919 C 664.138 344.414, 664.359 344, 664.941 344 C 665.523 344, 666 342.913, 666 341.583 C 666 340.254, 666.525 338.992, 667.167 338.778 C 667.808 338.564, 668.333 336.951, 668.333 335.194 C 668.333 333.438, 668.663 332, 669.067 332 C 670.488 332, 672.331 321.401, 672.415 312.750 C 672.462 307.938, 672.845 304, 673.266 304 C 673.687 304, 673.986 281.162, 673.929 253.250 C 673.858 217.750, 673.519 203.149, 672.801 204.660 C 672.178 205.972, 670.465 207.065, 668.438 207.446 C 666.603 207.790, 661.867 209.405, 657.913 211.036 C 653.960 212.666, 650.332 214, 649.852 214 C 649.371 214, 647.071 214.838, 644.739 215.863 C 640.665 217.654, 636.910 219.144, 627.750 222.606 C 623.913 224.057, 616.802 226.894, 611.500 229.090 C 610.400 229.545, 605.675 231.325, 601 233.045 C 596.325 234.764, 581.250 240.591, 567.500 245.992 C 553.750 251.394, 538.675 257.260, 534 259.027 C 529.325 260.794, 523.700 263.027, 521.500 263.989 C 519.300 264.952, 516.375 266.073, 515 266.481 C 512.219 267.306, 506.431 269.677, 503.764 271.084 C 502.809 271.588, 501.356 272, 500.536 272 C 499.715 272, 496.672 273.099, 493.772 274.443 C 490.872 275.787, 484.225 278.545, 479 280.572 C 473.775 282.600, 467.592 285.100, 465.261 286.129 C 462.929 287.158, 460.641 288, 460.176 288 C 459.711 288, 454.963 289.777, 449.624 291.950 C 444.285 294.122, 437.123 296.879, 433.708 298.077 C 430.294 299.274, 425.728 301.097, 423.562 302.127 C 421.396 303.157, 419.146 303.999, 418.562 303.998 C 417.978 303.996, 414.125 305.413, 410 307.147 C 397.756 312.293, 396.783 312.680, 390 315.098 C 386.425 316.373, 382.396 317.981, 381.046 318.670 C 379.696 319.360, 378.362 319.695, 378.082 319.415 C 377.485 318.818, 383.380 313.271, 388.166 309.925 C 390 308.644, 392.175 306.868, 393 305.979 C 393.825 305.091, 397.200 302.189, 400.500 299.531 C 403.800 296.873, 407.818 293.421, 409.429 291.860 C 411.040 290.299, 413.177 288.761, 414.179 288.443 C 415.181 288.125, 416 287.484, 416 287.019 C 416 286.554, 417.840 284.820, 420.088 283.167 C 422.337 281.513, 426.135 278.324, 428.529 276.080 C 430.924 273.836, 433.246 271.994, 433.691 271.986 C 434.136 271.979, 437.425 269.256, 441 265.935 C 444.575 262.614, 449.413 258.549, 451.750 256.901 C 454.088 255.252, 456 253.582, 456 253.188 C 456 252.794, 457.800 251.360, 460 250 C 462.200 248.640, 464 247.238, 464 246.884 C 464 246.530, 466.363 244.429, 469.250 242.216 C 472.137 240.002, 475.868 236.911, 477.539 235.346 C 479.211 233.781, 482.586 230.937, 485.039 229.026 C 487.493 227.115, 489.725 225.303, 490 225 C 490.275 224.697, 492.525 222.890, 495 220.985 C 497.475 219.080, 501.178 215.990, 503.229 214.120 C 505.280 212.249, 507.884 210.069, 509.016 209.276 C 510.149 208.483, 512.071 206.855, 513.288 205.658 C 514.504 204.461, 517.743 201.686, 520.484 199.491 C 523.226 197.296, 526.509 194.488, 527.780 193.250 C 529.051 192.012, 530.408 190.990, 530.795 190.977 C 531.183 190.965, 534.200 188.447, 537.500 185.382 C 540.800 182.316, 545.413 178.480, 547.750 176.856 C 550.087 175.232, 552 173.582, 552 173.188 C 552 172.794, 553.800 171.360, 556 170 C 558.200 168.640, 560 167.249, 560 166.908 C 560 166.568, 563.600 163.459, 568 160 C 572.400 156.541, 576 153.423, 576 153.071 C 576 152.719, 577.237 151.685, 578.750 150.772 C 580.263 149.860, 582.625 148.071, 584 146.797 C 585.375 145.522, 588.525 142.914, 591 141 C 593.475 139.087, 597.178 135.990, 599.229 134.120 C 601.280 132.249, 603.980 130.015, 605.229 129.155 C 606.478 128.295, 607.950 127.062, 608.500 126.414 C 609.050 125.767, 612.650 122.614, 616.500 119.408 C 620.350 116.202, 624.095 112.999, 624.821 112.290 C 625.548 111.580, 626.448 110.990, 626.821 110.977 C 627.195 110.965, 630.200 108.447, 633.500 105.382 C 636.800 102.316, 641.413 98.480, 643.750 96.856 C 646.087 95.232, 648 93.582, 648 93.188 C 648 92.794, 649.800 91.360, 652 90 C 654.200 88.640, 656 87.250, 656 86.911 C 656 86.572, 658.587 84.248, 661.750 81.746 C 664.913 79.243, 669.075 75.755, 671 73.994 C 672.925 72.234, 676.075 69.602, 678 68.146 C 679.925 66.691, 682.074 64.958, 682.775 64.297 C 683.476 63.635, 686.176 61.399, 688.775 59.329 C 693.177 55.822, 698.399 51.352, 707.074 43.667 C 711.440 39.798, 715.954 36.567, 718.111 35.767 C 718.997 35.438, 719.968 34.231, 720.268 33.085 C 720.567 31.938, 720.742 31.061, 720.656 31.136 C 720.570 31.211, 719.487 31.467, 718.250 31.706" stroke="none" fill="#ea506c" fill-rule="evenodd"/><path d="M 29.123 44.171 C 31.182 51.342, 33.193 57.950, 33.591 58.855 C 33.989 59.760, 34.225 61.063, 34.114 61.750 C 34.003 62.438, 34.354 63, 34.894 63 C 35.434 63, 35.839 63.788, 35.793 64.750 C 35.715 66.422, 38.057 76.143, 40.070 82.500 C 40.592 84.150, 42.599 91.125, 44.528 98 C 46.458 104.875, 48.313 111.175, 48.651 112 C 48.988 112.825, 49.407 114.584, 49.581 115.909 C 49.755 117.234, 50.280 118.584, 50.747 118.909 C 51.214 119.234, 51.660 120.527, 51.738 121.783 C 51.935 124.937, 64.995 170.294, 66.017 171.372 C 66.472 171.851, 66.606 172.864, 66.315 173.622 C 66.024 174.380, 66.256 175, 66.831 175 C 67.406 175, 67.830 175.788, 67.775 176.750 C 67.578 180.185, 75.386 206.992, 76.219 205.736 C 76.839 204.801, 77.364 204.926, 78.379 206.250 C 79.117 207.213, 80.571 207.999, 81.610 207.998 C 82.650 207.996, 86.650 209.313, 90.500 210.925 C 94.350 212.536, 101.325 215.288, 106 217.040 C 110.675 218.792, 116.408 221.075, 118.739 222.113 C 121.071 223.151, 123.438 224, 124 224 C 124.562 224, 126.929 224.860, 129.261 225.911 C 131.592 226.962, 136.195 228.796, 139.488 229.986 C 142.781 231.176, 145.931 232.487, 146.488 232.900 C 147.045 233.312, 149.493 234.221, 151.928 234.918 C 154.363 235.616, 157.957 237.045, 159.913 238.093 C 161.870 239.142, 164.046 240, 164.749 240 C 165.452 240, 166.809 240.397, 167.764 240.883 C 171.036 242.548, 174.514 243.941, 185.500 247.989 C 191.550 250.218, 198.525 252.892, 201 253.931 C 203.475 254.970, 209.325 257.242, 214 258.981 C 218.675 260.719, 223.512 262.559, 224.750 263.070 C 231.202 265.736, 232.665 266.331, 234.500 267.034 C 235.600 267.456, 238.633 268.746, 241.239 269.900 C 243.846 271.055, 246.298 272, 246.689 272 C 247.080 272, 253.272 274.279, 260.450 277.064 C 267.627 279.850, 277.100 283.494, 281.500 285.164 C 290.997 288.768, 298.645 291.748, 301.750 293.054 C 302.988 293.574, 305.012 294.390, 306.250 294.866 C 307.488 295.343, 309.625 296.197, 311 296.764 C 315.731 298.716, 329.504 303.817, 332 304.543 C 333.375 304.942, 335.388 305.884, 336.473 306.635 C 337.557 307.386, 339.025 308, 339.733 308 C 340.442 308, 342.929 308.860, 345.261 309.911 C 347.592 310.962, 352.108 312.763, 355.296 313.914 C 358.484 315.065, 362.854 316.905, 365.006 318.003 C 371.042 321.082, 373.039 320.587, 368.930 317.031 C 367.044 315.398, 365.050 313.710, 364.500 313.281 C 361.615 311.028, 352.432 303.451, 352 302.968 C 351.575 302.491, 332.506 286.521, 325.120 280.455 C 323.811 279.380, 319.271 275.575, 315.031 272 C 310.790 268.425, 305.786 264.301, 303.911 262.836 C 299.967 259.757, 296.550 256.916, 292.973 253.742 C 291.583 252.509, 288.486 249.925, 286.091 248 C 283.696 246.075, 280.780 243.600, 279.611 242.500 C 278.443 241.400, 275.841 239.269, 273.830 237.765 C 271.819 236.261, 269.572 234.459, 268.837 233.761 C 268.101 233.062, 265.025 230.468, 262 227.996 C 258.975 225.523, 255.600 222.676, 254.500 221.668 C 253.400 220.661, 249.688 217.545, 246.250 214.744 C 242.813 211.943, 240 209.312, 240 208.899 C 240 208.485, 239.397 208.001, 238.660 207.823 C 237.923 207.645, 235.111 205.609, 232.410 203.299 C 223.278 195.486, 211.340 185.514, 207.911 182.836 C 203.967 179.757, 200.550 176.916, 196.973 173.742 C 195.583 172.509, 192.486 169.925, 190.091 168 C 187.696 166.075, 184.780 163.600, 183.611 162.500 C 182.443 161.400, 179.914 159.314, 177.993 157.863 C 176.072 156.413, 173.375 154.225, 172 153.002 C 170.625 151.778, 167.480 149.139, 165.010 147.138 C 162.541 145.137, 159.616 142.676, 158.510 141.668 C 157.405 140.661, 153.688 137.545, 150.250 134.744 C 146.813 131.943, 144 129.312, 144 128.899 C 144 128.485, 143.397 128.001, 142.660 127.823 C 141.923 127.645, 139.111 125.609, 136.410 123.299 C 127.278 115.486, 115.340 105.514, 111.911 102.836 C 107.967 99.757, 104.550 96.916, 100.973 93.742 C 99.583 92.509, 96.486 89.925, 94.091 88 C 91.696 86.075, 88.780 83.600, 87.611 82.500 C 86.443 81.400, 83.914 79.314, 81.993 77.863 C 80.072 76.413, 77.375 74.225, 76 73.002 C 74.625 71.778, 71.475 69.139, 69 67.138 C 66.525 65.137, 64.275 63.247, 64 62.937 C 63.725 62.628, 59.225 58.855, 54 54.554 C 48.775 50.253, 42.475 45.035, 40 42.959 C 37.525 40.883, 33.223 37.373, 30.439 35.158 L 25.378 31.131 29.123 44.171 M 720 33.500 C 719.477 34.875, 718.570 36, 717.984 36 C 716.706 36, 711.975 39.324, 707.074 43.667 C 698.399 51.352, 693.177 55.822, 688.775 59.329 C 686.176 61.399, 683.476 63.635, 682.775 64.297 C 682.074 64.958, 679.925 66.691, 678 68.146 C 676.075 69.602, 672.925 72.234, 671 73.994 C 669.075 75.755, 664.913 79.243, 661.750 81.746 C 658.587 84.248, 656 86.572, 656 86.911 C 656 87.250, 654.200 88.640, 652 90 C 649.800 91.360, 648 92.794, 648 93.188 C 648 93.582, 646.087 95.232, 643.750 96.856 C 641.413 98.480, 636.800 102.316, 633.500 105.382 C 630.200 108.447, 627.195 110.965, 626.821 110.977 C 626.448 110.990, 625.548 111.580, 624.821 112.290 C 624.095 112.999, 620.350 116.202, 616.500 119.408 C 612.650 122.614, 609.050 125.767, 608.500 126.414 C 607.950 127.062, 606.478 128.295, 605.229 129.155 C 603.980 130.015, 601.280 132.249, 599.229 134.120 C 597.178 135.990, 593.475 139.087, 591 141 C 588.525 142.914, 585.375 145.522, 584 146.797 C 582.625 148.071, 580.263 149.860, 578.750 150.772 C 577.237 151.685, 576 152.719, 576 153.071 C 576 153.423, 572.400 156.541, 568 160 C 563.600 163.459, 560 166.568, 560 166.908 C 560 167.249, 558.200 168.640, 556 170 C 553.800 171.360, 552 172.794, 552 173.188 C 552 173.582, 550.087 175.232, 547.750 176.856 C 545.413 178.480, 540.800 182.316, 537.500 185.382 C 534.200 188.447, 531.183 190.965, 530.795 190.977 C 530.408 190.990, 529.051 192.012, 527.780 193.250 C 526.509 194.488, 523.226 197.296, 520.484 199.491 C 517.743 201.686, 514.504 204.461, 513.288 205.658 C 512.071 206.855, 510.149 208.483, 509.016 209.276 C 507.884 210.069, 505.280 212.249, 503.229 214.120 C 501.178 215.990, 497.475 219.080, 495 220.985 C 492.525 222.890, 490.275 224.697, 490 225 C 489.725 225.303, 487.493 227.115, 485.039 229.026 C 482.586 230.937, 479.211 233.781, 477.539 235.346 C 475.868 236.911, 472.137 240.002, 469.250 242.216 C 466.363 244.429, 464 246.530, 464 246.884 C 464 247.238, 462.200 248.640, 460 250 C 457.800 251.360, 456 252.794, 456 253.188 C 456 253.582, 454.088 255.252, 451.750 256.901 C 449.413 258.549, 444.575 262.614, 441 265.935 C 437.425 269.256, 434.136 271.979, 433.691 271.986 C 433.246 271.994, 430.924 273.836, 428.529 276.080 C 426.135 278.324, 422.337 281.513, 420.088 283.167 C 417.840 284.820, 416 286.554, 416 287.019 C 416 287.484, 415.181 288.125, 414.179 288.443 C 413.177 288.761, 411.040 290.299, 409.429 291.860 C 407.818 293.421, 403.800 296.873, 400.500 299.531 C 397.200 302.189, 393.825 305.091, 393 305.979 C 392.175 306.868, 390 308.644, 388.166 309.925 C 383.380 313.271, 377.485 318.818, 378.082 319.415 C 378.362 319.695, 379.696 319.360, 381.046 318.670 C 382.396 317.981, 386.425 316.373, 390 315.098 C 396.783 312.680, 397.756 312.293, 410 307.147 C 414.125 305.413, 417.978 303.996, 418.562 303.998 C 419.146 303.999, 421.396 303.157, 423.562 302.127 C 425.728 301.097, 430.294 299.274, 433.708 298.077 C 437.123 296.879, 444.285 294.122, 449.624 291.950 C 454.963 289.777, 459.711 288, 460.176 288 C 460.641 288, 462.929 287.158, 465.261 286.129 C 467.592 285.100, 473.775 282.600, 479 280.572 C 484.225 278.545, 490.872 275.787, 493.772 274.443 C 496.672 273.099, 499.715 272, 500.536 272 C 501.356 272, 502.809 271.588, 503.764 271.084 C 506.431 269.677, 512.219 267.306, 515 266.481 C 516.375 266.073, 519.300 264.952, 521.500 263.989 C 523.700 263.027, 529.325 260.794, 534 259.027 C 538.675 257.260, 553.750 251.394, 567.500 245.992 C 581.250 240.591, 596.325 234.764, 601 233.045 C 605.675 231.325, 610.400 229.545, 611.500 229.090 C 617.035 226.797, 623.919 224.056, 627.500 222.719 C 634.857 219.972, 640.464 217.742, 644.739 215.863 C 647.071 214.838, 649.371 214, 649.852 214 C 650.332 214, 653.960 212.666, 657.913 211.036 C 661.867 209.405, 666.604 207.790, 668.440 207.445 C 672.278 206.725, 673.438 204.552, 676.953 191.500 C 678.138 187.100, 679.975 180.575, 681.035 177 C 686.830 157.461, 688.267 152.308, 688.442 150.450 C 688.548 149.322, 688.899 147.972, 689.222 147.450 C 690.326 145.660, 694.982 128.649, 694.500 128.166 C 694.234 127.901, 694.416 127.193, 694.904 126.592 C 696.008 125.233, 700.090 111.593, 700.271 108.661 C 700.344 107.472, 700.663 106.275, 700.980 106 C 701.297 105.725, 703.961 96.950, 706.900 86.500 C 709.839 76.050, 712.858 65.475, 713.608 63 C 718.705 46.200, 722.622 31, 721.856 31 C 721.358 31, 720.523 32.125, 720 33.500 M 75.463 256.500 C 75.463 283.450, 75.592 294.331, 75.749 280.681 C 75.907 267.030, 75.906 244.980, 75.749 231.681 C 75.592 218.381, 75.463 229.550, 75.463 256.500 M 370.369 324.830 C 368.791 326.387, 365.925 328.728, 364 330.032 C 362.075 331.336, 360.275 332.651, 360 332.954 C 359.725 333.257, 355.450 336.862, 350.500 340.966 C 345.550 345.069, 340.734 349.118, 339.798 349.964 C 338.862 350.809, 337.512 351.951, 336.798 352.501 C 330.817 357.115, 320 366.593, 320 367.220 C 320 367.649, 319.438 368.002, 318.750 368.005 C 318.063 368.007, 316.150 369.245, 314.500 370.755 C 311.862 373.169, 306.506 377.689, 287.550 393.500 C 284.912 395.700, 281.196 398.462, 279.292 399.638 C 277.033 401.034, 276.294 401.962, 277.165 402.309 C 278.064 402.668, 277.929 402.868, 276.750 402.921 C 275.788 402.964, 275 403.357, 275 403.794 C 275 404.822, 291.087 412.547, 292.817 412.350 C 293.541 412.268, 293.868 412.465, 293.544 412.789 C 292.636 413.697, 308.090 421.056, 309.370 420.324 C 309.992 419.970, 310.153 420.061, 309.728 420.529 C 308.730 421.626, 323.878 429.176, 325.370 428.324 C 325.992 427.970, 326.153 428.061, 325.728 428.529 C 324.730 429.626, 339.878 437.176, 341.370 436.324 C 341.992 435.970, 342.153 436.061, 341.728 436.529 C 340.730 437.626, 355.878 445.176, 357.370 444.324 C 357.992 443.970, 358.160 444.054, 357.745 444.511 C 356.792 445.562, 371.020 452.930, 372.733 452.272 C 373.738 451.887, 374 438.455, 374 387.393 C 374 351.977, 374.337 323.002, 374.750 323.005 C 375.163 323.008, 382.475 328.851, 391 335.988 C 399.525 343.125, 406.855 348.973, 407.289 348.983 C 407.723 348.992, 405.473 346.879, 402.289 344.287 C 399.105 341.694, 395.600 338.762, 394.500 337.772 C 386.251 330.343, 375.723 322, 374.597 322 C 373.849 322, 371.946 323.274, 370.369 324.830 M 408.550 350.805 C 409.072 351.247, 413.550 354.960, 418.500 359.055 C 423.450 363.150, 428.095 367.063, 428.821 367.750 C 429.548 368.438, 430.603 369, 431.166 369 C 431.729 369, 430.234 367.387, 427.845 365.416 C 422.811 361.263, 421.316 360.018, 414.436 354.247 C 411.650 351.911, 408.973 350, 408.486 350 C 407.999 350, 408.028 350.362, 408.550 350.805 M 435.715 373.248 C 437.797 375.035, 439.725 376.723, 440 377.001 C 441.815 378.830, 454.846 389, 455.375 389 C 455.733 389, 452.983 386.439, 449.263 383.308 C 445.544 380.178, 442.275 377.365, 442 377.058 C 440.891 375.820, 433.077 370, 432.524 370 C 432.197 370, 433.634 371.462, 435.715 373.248 M 464.141 397 C 468.691 400.850, 472.832 404, 473.342 404 C 473.852 404, 472.972 402.997, 471.385 401.771 C 469.798 400.546, 467.926 398.992, 467.225 398.318 C 464.334 395.540, 457.244 390, 456.580 390 C 456.188 390, 459.590 393.150, 464.141 397" stroke="none" fill="#ed6f72" fill-rule="evenodd"/><path d="M 26 31.245 C 26 31.498, 28.689 33.818, 31.976 36.400 C 35.263 38.983, 38.526 41.643, 39.226 42.311 C 39.927 42.980, 45.299 47.452, 51.165 52.250 C 57.031 57.047, 62.431 61.541, 63.166 62.236 C 63.901 62.931, 66.527 65.137, 69.001 67.138 C 71.476 69.139, 74.625 71.778, 76 73.002 C 77.375 74.225, 80.072 76.413, 81.993 77.863 C 83.914 79.314, 86.443 81.400, 87.611 82.500 C 88.780 83.600, 91.696 86.075, 94.091 88 C 96.486 89.925, 99.583 92.509, 100.973 93.742 C 104.550 96.916, 107.967 99.757, 111.911 102.836 C 115.340 105.514, 127.278 115.486, 136.410 123.299 C 139.111 125.609, 141.923 127.645, 142.660 127.823 C 143.397 128.001, 144 128.485, 144 128.899 C 144 129.312, 146.813 131.943, 150.250 134.744 C 153.688 137.545, 157.405 140.661, 158.510 141.668 C 159.616 142.676, 162.541 145.137, 165.010 147.138 C 167.480 149.139, 170.625 151.778, 172 153.002 C 173.375 154.225, 176.072 156.413, 177.993 157.863 C 179.914 159.314, 182.443 161.400, 183.611 162.500 C 184.780 163.600, 187.696 166.075, 190.091 168 C 192.486 169.925, 195.583 172.509, 196.973 173.742 C 200.550 176.916, 203.967 179.757, 207.911 182.836 C 211.340 185.514, 223.278 195.486, 232.410 203.299 C 235.111 205.609, 237.923 207.645, 238.660 207.823 C 239.397 208.001, 240 208.485, 240 208.899 C 240 209.312, 242.813 211.943, 246.250 214.744 C 249.688 217.545, 253.400 220.661, 254.500 221.668 C 255.600 222.676, 258.975 225.523, 262 227.996 C 265.025 230.468, 268.101 233.062, 268.837 233.761 C 269.572 234.459, 271.819 236.261, 273.830 237.765 C 275.841 239.269, 278.443 241.400, 279.611 242.500 C 280.780 243.600, 283.696 246.075, 286.091 248 C 288.486 249.925, 291.583 252.509, 292.973 253.742 C 296.550 256.916, 299.967 259.757, 303.911 262.836 C 305.786 264.301, 310.790 268.425, 315.031 272 C 319.271 275.575, 323.811 279.380, 325.120 280.455 C 332.506 286.521, 351.575 302.491, 352 302.968 C 352.432 303.451, 361.615 311.028, 364.500 313.281 C 365.050 313.710, 367.044 315.398, 368.930 317.031 C 370.817 318.664, 372.729 320, 373.180 320 C 373.631 320, 374 277.349, 374 225.220 L 374 130.441 201.250 81.090 C 106.238 53.948, 27.938 31.525, 27.250 31.263 C 26.563 31.001, 26 30.993, 26 31.245 M 374 387.417 C 374 436.613, 373.717 451.928, 372.801 452.233 C 371.977 452.508, 372.056 452.808, 373.055 453.191 C 373.855 453.498, 396.680 442.662, 423.776 429.112 L 473.042 404.475 465.416 398.061 C 461.222 394.534, 457.275 391.164, 456.645 390.574 C 456.015 389.983, 452.130 386.800, 448.012 383.500 C 443.893 380.200, 439.168 376.297, 437.512 374.826 C 434.643 372.278, 430.660 368.935, 428.500 367.263 C 427.277 366.315, 410.463 352.275, 407 349.308 C 395.038 339.063, 375.352 323.007, 374.750 323.004 C 374.337 323.002, 374 351.988, 374 387.417" stroke="none" fill="#f4947b" fill-rule="evenodd"/><path d="M 0 234.001 L 0 468.003 375.250 467.751 L 750.500 467.500 750.752 233.750 L 751.004 0 375.502 0 L 0 0 0 234.001 M 0.492 234.500 C 0.492 363.200, 0.608 415.701, 0.750 351.170 C 0.892 286.638, 0.892 181.338, 0.750 117.170 C 0.608 53.001, 0.492 105.800, 0.492 234.500 M 25.220 32.130 C 25.752 33.516, 27.930 41.060, 37.022 73 C 47.170 108.650, 53.588 131.112, 63.920 167.125 L 75 205.749 75 259.744 C 75 303.206, 75.292 315.413, 76.497 322.324 C 78.936 336.311, 83.324 347.155, 91.601 359.656 C 103.662 377.870, 121.373 391.789, 141.096 398.554 C 156.742 403.920, 157.917 404.003, 217.315 403.956 L 272.500 403.913 323.250 429.189 L 374 454.466 424.750 429.216 L 475.500 403.966 530.753 403.961 C 592.263 403.954, 593.923 403.814, 610.500 397.252 C 633.901 387.989, 653.338 369.603, 664.029 346.619 C 672.939 327.463, 674.046 316.814, 673.978 250.892 L 673.929 203.284 698.473 117.484 C 711.972 70.293, 722.825 31.492, 722.591 31.258 C 722.358 31.024, 718.641 31.826, 714.333 33.039 C 710.025 34.253, 703.575 36.059, 700 37.053 C 686.250 40.875, 584.347 69.987, 581.500 70.906 C 579.850 71.438, 561.625 76.645, 541 82.477 C 520.375 88.309, 501.475 93.702, 499 94.460 C 496.525 95.219, 471.325 102.423, 443 110.468 C 414.675 118.513, 389.475 125.712, 387 126.464 C 384.525 127.216, 380.617 128.329, 378.316 128.937 C 374.318 129.992, 366.490 127.858, 202.316 80.947 C 107.817 53.944, 29.187 31.589, 27.582 31.267 C 25.301 30.810, 24.786 30.999, 25.220 32.130" stroke="none" fill="#000000" fill-rule="evenodd"/></svg>